<svg width="111" height="111" viewBox="0 0 111 111" fill="none" xmlns="http://www.w3.org/2000/svg">
<path d="M40.0836 44.7845L40.8444 44.7678L40.5271 44.0761C40.4581 43.9259 40.4144 43.7959 40.367 43.6549C40.3516 43.6093 40.3359 43.5627 40.3189 43.5138C40.2609 43.3476 40.1802 43.1342 40.0231 42.9466C34.0079 32.6258 27.1973 22.8824 18.3561 14.5436L18.3558 14.5434C14.3316 10.7536 9.84125 7.63114 5.22495 4.78378C4.06309 4.04138 2.85761 3.16362 1.72766 2.32409C1.37727 2.03043 1.02947 1.64857 0.85954 1.30612C0.850831 1.25274 0.846575 1.15031 0.867947 1.02972C0.879709 0.963349 0.89672 0.907039 0.914978 0.865329C0.923146 0.846668 0.930161 0.834099 0.93503 0.826281C0.937699 0.82546 0.940859 0.824553 0.944525 0.823612C0.974869 0.815825 1.02246 0.81001 1.08475 0.812099C1.21398 0.816431 1.33151 0.851338 1.38532 0.878886C12.8429 7.55043 23.1546 15.64 30.9678 26.4312C34.9829 32.0201 38.8509 37.6333 42.1688 43.6232C42.344 43.9547 42.5812 44.358 42.8577 44.7108C43.1226 45.0488 43.4794 45.4142 43.9098 45.5626C51.283 48.1047 57.2784 52.8126 62.5683 58.2853L62.57 58.287C68.4153 64.2758 74.0502 70.4339 79.6959 76.6036C82.0249 79.1489 84.3557 81.6961 86.7039 84.2342L86.7122 84.2432L86.7209 84.2517C86.7842 84.3138 86.85 84.3801 86.9188 84.4495C87.3817 84.916 87.9819 85.5209 88.8839 85.8996L89.7163 86.2491L89.571 85.3581C88.9016 81.2532 88.1913 77.1437 87.4778 73.0158C86.8802 69.5582 86.2803 66.0877 85.7004 62.596C86.0086 62.6099 86.2327 62.6837 86.4067 62.7847C86.6731 62.9392 86.8862 63.194 87.0981 63.5671C87.1845 63.7307 87.2719 63.8931 87.3589 64.0549C87.795 64.8656 88.2224 65.6599 88.475 66.5093C90.1078 72.5136 91.7388 78.5116 93.2343 84.5487C93.5321 85.7899 93.5767 87.1232 93.5328 88.4431C93.4499 89.6447 92.9908 90.4166 92.364 90.812C91.7325 91.2103 90.8173 91.2981 89.6781 90.8902C84.8683 89.0756 80.1947 87.2211 75.4815 85.2316L75.4735 85.2282L75.4654 85.2251C74.8265 84.9812 74.4559 84.6668 74.2717 84.3548C74.0977 84.06 74.0579 83.7137 74.186 83.3093C74.3278 82.9841 74.5772 82.7464 74.9289 82.6224C75.2951 82.4933 75.8074 82.4766 76.4629 82.6789C77.8832 83.1295 79.2483 83.6269 80.6736 84.1462C81.7907 84.5533 82.9447 84.9738 84.1914 85.3958L85.4667 85.8275L84.7823 84.668C84.6769 84.4895 84.6037 84.3479 84.5349 84.2148C84.5122 84.1709 84.49 84.128 84.4673 84.085C84.3787 83.9171 84.2795 83.7426 84.1241 83.5764L84.1191 83.571L84.1139 83.5658C82.184 81.6203 80.2562 79.6695 78.3271 77.7174C71.9534 71.2679 65.5654 64.804 59.0423 58.4683C57.088 56.523 54.7693 54.853 52.5293 53.2396C51.8522 52.752 51.1823 52.2695 50.5318 51.7861C49.9279 51.3373 49.2586 50.9758 48.5599 50.6253C48.343 50.5165 48.1245 50.4094 47.9032 50.3009C47.4007 50.0544 46.8841 49.801 46.341 49.5064L45.3855 48.9879L45.6137 50.0508C45.8112 50.9709 46.0167 51.6638 46.1779 52.2075L46.1785 52.2097L46.183 52.2246L46.1883 52.2393C47.7334 56.4635 48.8223 60.8797 49.0687 65.3894C49.2418 69.3955 48.6305 73.163 46.6038 76.7L46.5706 76.7519C45.8214 77.925 45.0557 79.1238 44.0964 80.1024L44.0927 80.1062C39.8342 84.544 33.6406 84.7771 28.7866 80.6108L28.7866 80.6107L28.78 80.6053C22.5586 75.4477 17.849 63.8594 23.3716 53.886L23.3736 53.8823C26.4306 48.2485 31.3777 45.4129 37.7836 44.8838L37.7878 44.8834C38.4854 44.8199 39.2733 44.8023 40.0836 44.7845ZM44.9171 76.0191L44.9467 75.9812L44.9685 75.9384C46.7312 72.4755 47.3978 69.1004 47.1952 65.6064C47.0602 60.1087 45.5113 54.8983 43.5214 49.9337C43.2857 49.2863 42.9291 48.8133 42.4554 48.4694C41.9903 48.1318 41.4414 47.9399 40.8582 47.8028L40.8486 47.8006L40.8388 47.7987C34.7492 46.6194 27.9748 50.0003 25.2368 55.4814L25.236 55.483C23.4022 59.1873 23.029 63.7097 23.8857 67.9643C24.7423 72.2181 26.8382 76.2527 30.0036 78.9696C32.1271 80.8306 34.4837 81.7043 36.8106 81.5669C39.1374 81.4294 41.3696 80.2848 43.2521 78.2319L43.2601 78.2231L43.2677 78.214C43.6051 77.809 43.9293 77.3723 44.2123 76.9826C44.2939 76.8703 44.3712 76.763 44.4442 76.6617C44.6299 76.404 44.788 76.1847 44.9171 76.0191Z" fill="#244252" stroke="black"/>
</svg>
